<svg width="75" height="75" viewBox="0 0 75 75" fill="none" xmlns="http://www.w3.org/2000/svg">
<g clip-path="url(#clip0_1_2565)">
<path d="M37.5 75C58.2107 75 75 58.2107 75 37.5C75 16.7893 58.2107 0 37.5 0C16.7893 0 0 16.7893 0 37.5C0 58.2107 16.7893 75 37.5 75Z" fill="#274BF1"/>
<path d="M54.3814 45.9125H48.3523V38.6777H54.3814C54.8382 38.6777 55.2551 38.4198 55.46 38.0111C55.6637 37.6025 55.6202 37.1138 55.3458 36.7488L53.1756 33.8544H54.3814C54.8382 33.8544 55.2551 33.5966 55.46 33.188C55.6637 32.7793 55.6202 32.2906 55.3458 31.9256L53.1756 29.0312H54.3814C54.8382 29.0312 55.2551 28.7732 55.46 28.3646C55.6637 27.956 55.6202 27.4673 55.3458 27.1022L48.1109 17.4557C47.6564 16.8481 46.6367 16.8481 46.1822 17.4557L38.9473 27.1022C38.6729 27.4673 38.6294 27.956 38.833 28.3646C39.0378 28.7732 39.4548 29.0312 39.9117 29.0312H41.1175L38.9473 31.9256C38.6729 32.2906 38.6294 32.7793 38.833 33.188C39.0378 33.5966 39.4548 33.8544 39.9117 33.8544H41.1175L38.9473 36.7488C38.6729 37.1138 38.6294 37.6025 38.833 38.0111C39.0378 38.4198 39.4548 38.6777 39.9117 38.6777H45.9408V45.9125H29.0593V38.6777H35.0884C35.5452 38.6777 35.9621 38.4198 36.1671 38.0111C36.3707 37.6025 36.3273 37.1138 36.0528 36.7488L33.8826 33.8544H35.0884C35.5452 33.8544 35.9621 33.5966 36.1671 33.188C36.3707 32.7793 36.3273 32.2906 36.0528 31.9256L33.8826 29.0312H35.0884C35.5452 29.0312 35.9621 28.7732 36.1671 28.3646C36.3707 27.956 36.3273 27.4673 36.0528 27.1022L28.8179 17.4557C28.3634 16.8481 27.3436 16.8481 26.8891 17.4557L19.6543 27.1022C19.3799 27.4673 19.3363 27.956 19.5401 28.3646C19.7449 28.7732 20.1618 29.0312 20.6187 29.0312H21.8244L19.6543 31.9256C19.3799 32.2906 19.3363 32.7793 19.5401 33.188C19.7449 33.5966 20.1618 33.8544 20.6187 33.8544H21.8244L19.6543 36.7488C19.3799 37.1138 19.3363 37.6025 19.5401 38.0111C19.7449 38.4198 20.1618 38.6777 20.6187 38.6777H26.6477V45.9125H20.6187C18.6041 45.9125 17.0012 47.5816 17.0012 49.53C17.0012 50.1965 17.5406 50.7357 18.207 50.7357H25.4418C26.0867 50.7357 26.6555 51.2446 26.6476 51.8968C26.624 53.8455 28.1408 55.5249 30.265 55.5249C32.3882 55.5249 33.9061 53.8465 33.8825 51.8968C33.8746 51.244 34.4439 50.7357 35.0882 50.7357H39.9114C40.5768 50.7357 41.1172 51.2762 41.1172 51.9415V54.3532C41.1172 56.3479 42.7399 57.9706 44.7346 57.9706C46.7294 57.9706 48.352 56.3479 48.352 54.3532V51.9415C48.352 51.2762 48.8925 50.7357 49.5578 50.7357H56.7927C57.4592 50.7357 57.9984 50.1964 57.9984 49.53C57.9988 47.6236 56.4328 45.9125 54.3814 45.9125Z" fill="white"/>
</g>
<defs>
<clipPath id="clip0_1_2565">
<rect width="75" height="75" fill="white"/>
</clipPath>
</defs>
</svg>
