<svg width="75" height="75" viewBox="0 0 75 75" fill="none" xmlns="http://www.w3.org/2000/svg">
<g clip-path="url(#clip0_1_2570)">
<path d="M37.5 75C58.2107 75 75 58.2107 75 37.5C75 16.7893 58.2107 0 37.5 0C16.7893 0 0 16.7893 0 37.5C0 58.2107 16.7893 75 37.5 75Z" fill="#274BF1"/>
<path d="M30.7293 27.301C30.6396 26.9422 30.7202 26.5621 30.9477 26.2704C31.1754 25.9788 31.5246 25.8085 31.8945 25.8085H42.1676L42.4317 24.7522C43.1012 22.0737 45.4973 20.203 48.2582 20.203H56.7988C57.4621 20.203 58 20.7408 58 21.4042C58 22.0677 57.4622 22.6054 56.7988 22.6054H48.2582C46.6016 22.6054 45.164 23.7279 44.7622 25.3349L44.2707 27.3009L43.3242 31.0867C42.9223 32.6939 41.4849 33.8162 39.8283 33.8162H35.1714C33.5149 33.8162 32.0774 32.6937 31.6756 31.0867L30.7293 27.301ZM35.0977 21.8047C35.761 21.8047 36.2989 21.267 36.2989 20.6035V18.2012C36.2989 17.5379 35.7612 17 35.0977 17C34.4342 17 33.8965 17.5377 33.8965 18.2012V20.6035C33.8965 21.2668 34.4342 21.8047 35.0977 21.8047ZM39.9023 21.8047C40.5656 21.8047 41.1035 21.267 41.1035 20.6035V18.2012C41.1035 17.5379 40.5658 17 39.9023 17C39.2388 17 38.7011 17.5377 38.7011 18.2012V20.6035C38.7012 21.2668 39.239 21.8047 39.9023 21.8047ZM56.7988 36.3788H18.2012C17.5379 36.3788 17 36.9166 17 37.58V39.0753C17 39.7845 17.0506 40.4887 17.1489 41.1835H57.8509C57.9492 40.4887 57.9999 39.7845 57.9999 39.0753V37.58C58 36.9166 57.4622 36.3788 56.7988 36.3788ZM20.7246 48.9838C22.8935 51.4612 25.8058 53.1499 29.0116 53.8091V56.7988C29.0116 57.4621 29.5494 58 30.2129 58H44.7871C45.4505 58 45.9884 57.4623 45.9884 56.7988V53.8091C49.1942 53.1499 52.1065 51.4612 54.2754 48.9838C55.661 47.4013 56.6866 45.5602 57.3072 43.5858H17.6928C18.3135 45.5602 19.339 47.4013 20.7246 48.9838Z" fill="white"/>
</g>
<defs>
<clipPath id="clip0_1_2570">
<rect width="75" height="75" fill="white"/>
</clipPath>
</defs>
</svg>
