<svg width="75" height="75" viewBox="0 0 75 75" fill="none" xmlns="http://www.w3.org/2000/svg">
<g clip-path="url(#clip0_1_2569)">
<path d="M37.5 75C58.2107 75 75 58.2107 75 37.5C75 16.7893 58.2107 0 37.5 0C16.7893 0 0 16.7893 0 37.5C0 58.2107 16.7893 75 37.5 75Z" fill="#274BF1"/>
<path d="M54.3665 33.6H53.0691C49.6073 33.6 46.582 36.3957 46.582 40.0999V43.9999H28.418V40.0999C28.418 36.3971 25.3969 33.6 21.9308 33.6H20.6335C17.7713 33.6 15.4438 35.9321 15.4438 38.7999C15.4438 41.6678 17.7713 43.9999 20.6335 43.9999V50.4999C20.6335 52.6505 22.3794 54.3999 24.5257 54.3999H25.8231V55.6999C25.8231 56.4184 26.4034 56.9999 27.1204 56.9999C27.8376 56.9999 28.4178 56.4186 28.4178 55.6999V54.3999H46.5817V55.6999C46.5817 56.4184 47.162 56.9999 47.8791 56.9999C48.5963 56.9999 49.1764 56.4186 49.1764 55.6999V54.3999H50.4738C52.6201 54.3999 54.366 52.6505 54.366 50.4999V43.9999C57.2282 43.9999 59.5557 41.6678 59.5557 38.7999C59.5557 35.9321 57.2287 33.6 54.3665 33.6ZM31.0128 40.0999V41.3999H43.987V40.0999C43.987 35.4094 47.447 31.7272 51.7715 31.1V27.1C51.7715 22.0829 47.6968 18 42.6896 18H32.3102C27.303 18 23.2283 22.0829 23.2283 27.1V31.0999C27.5477 31.7259 31.0128 35.4017 31.0128 40.0999ZM42.6896 23.2C43.406 23.2 43.987 23.7819 43.987 24.5C43.987 25.2179 43.406 25.8 42.6896 25.8C41.9731 25.8 41.3922 25.2179 41.3922 24.5C41.3922 23.7819 41.9731 23.2 42.6896 23.2ZM42.6896 33.6C43.406 33.6 43.987 34.1819 43.987 34.9C43.987 35.6179 43.406 36.2 42.6896 36.2C41.9731 36.2 41.3922 35.6179 41.3922 34.9C41.3922 34.1819 41.9731 33.6 42.6896 33.6ZM37.5 28.4C38.2164 28.4 38.7973 28.9819 38.7973 29.7C38.7973 30.4179 38.2164 31 37.5 31C36.7835 31 36.2026 30.4179 36.2026 29.7C36.2026 28.9819 36.7835 28.4 37.5 28.4ZM32.3104 23.2C33.0268 23.2 33.6077 23.7819 33.6077 24.5C33.6077 25.2179 33.0268 25.8 32.3104 25.8C31.5939 25.8 31.013 25.2179 31.013 24.5C31.0128 23.7819 31.5938 23.2 32.3104 23.2ZM32.3104 33.6C33.0268 33.6 33.6077 34.1819 33.6077 34.9C33.6077 35.6179 33.0268 36.2 32.3104 36.2C31.5939 36.2 31.013 35.6179 31.013 34.9C31.0128 34.1819 31.5938 33.6 32.3104 33.6Z" fill="white"/>
</g>
<defs>
<clipPath id="clip0_1_2569">
<rect width="75" height="75" fill="white"/>
</clipPath>
</defs>
</svg>
