<svg width="75" height="75" viewBox="0 0 75 75" fill="none" xmlns="http://www.w3.org/2000/svg">
<g clip-path="url(#clip0_1_2567)">
<path d="M37.5 75C58.2107 75 75 58.2107 75 37.5C75 16.7893 58.2107 0 37.5 0C16.7893 0 0 16.7893 0 37.5C0 58.2107 16.7893 75 37.5 75Z" fill="#274BF1"/>
<path d="M55.853 26.9554H50.1137C49.8654 26.9554 49.6238 26.8743 49.4253 26.7242L38.1886 18.2313C37.7805 17.9229 37.2196 17.9229 36.8117 18.2313L25.5781 26.7241C25.3795 26.8742 25.1379 26.9555 24.8897 26.9555H19.1471C18.5137 26.9555 18.0001 27.4727 18.0001 28.1111V30.4221C18.0001 31.0604 18.5137 31.5777 19.1471 31.5777H26.4046C26.6526 31.5777 26.8941 31.4966 27.0926 31.3468L36.8122 24.0082C37.2199 23.7005 37.7804 23.7005 38.1881 24.0082L47.9077 31.3468C48.1062 31.4966 48.3477 31.5777 48.5956 31.5777H55.8531C56.4865 31.5777 57.0001 31.0602 57.0001 30.4221V28.1111C57 27.4726 56.4864 26.9554 55.853 26.9554ZM54.7058 24.6442V21.1776C54.7058 20.5393 54.1923 20.0221 53.5588 20.0221H51.2647C50.6312 20.0221 50.1177 20.5393 50.1177 21.1776V24.358L50.4963 24.6442H54.7058ZM36.353 57H38.6471V52.3777H36.353V57ZM55.853 54.6889H54.706V33.8888H48.5954C47.8549 33.8888 47.1212 33.6416 46.5298 33.1936L37.5 26.3765L28.468 33.1959C27.8788 33.6417 27.1451 33.8888 26.4046 33.8888H20.294V54.6888H19.147C18.5129 54.6888 18 55.2056 18 55.8443C18 56.4831 18.5131 56.9999 19.147 56.9999H34.0588V51.2221C34.0588 50.5833 34.5719 50.0665 35.2058 50.0665H36.3529V46.5998C36.3529 45.9611 36.8659 45.4442 37.4999 45.4442H46.6764C47.3093 45.4442 47.8234 44.9263 47.8234 44.2887V41.9776C47.8234 41.3401 47.3093 40.8221 46.6764 40.8221H45.5293V41.9776C45.5293 42.6164 45.0163 43.1332 44.3823 43.1332H30.6177C29.9836 43.1332 29.4706 42.6164 29.4706 41.9776V37.3554C29.4706 36.7166 29.9837 36.1998 30.6177 36.1998H44.3823C45.0164 36.1998 45.5293 36.7166 45.5293 37.3554V38.5109H46.6764C48.5739 38.5109 50.1175 40.066 50.1175 41.9775V44.2886C50.1175 46.2002 48.5739 47.7553 46.6764 47.7553H38.6469V50.0664H39.7939C40.428 50.0664 40.9409 50.5832 40.9409 51.2219V57H55.8527C56.4868 57 56.9997 56.4832 56.9997 55.8445C57 55.2057 56.4869 54.6889 55.853 54.6889ZM43.2353 40.8221V38.511H31.7648V40.8221H43.2353Z" fill="white"/>
</g>
<defs>
<clipPath id="clip0_1_2567">
<rect width="75" height="75" fill="white"/>
</clipPath>
</defs>
</svg>
