<svg width="75" height="75" viewBox="0 0 75 75" fill="none" xmlns="http://www.w3.org/2000/svg">
<g clip-path="url(#clip0_1_2566)">
<path d="M37.5 75C58.2107 75 75 58.2107 75 37.5C75 16.7893 58.2107 0 37.5 0C16.7893 0 0 16.7893 0 37.5C0 58.2107 16.7893 75 37.5 75Z" fill="#274BF1"/>
<path d="M49.152 31.8838L43.9439 16.2703C43.7659 15.7392 43.2674 15.3809 42.708 15.3809H32.2919C31.7325 15.3809 31.234 15.7392 31.056 16.2703L25.8481 31.8838C25.7158 32.2802 25.782 32.7173 26.0285 33.0565C26.2727 33.3958 26.6643 33.5966 27.0839 33.5966H47.9161C48.3357 33.5966 48.7273 33.3959 48.9715 33.0565C49.218 32.7173 49.2842 32.2802 49.152 31.8838ZM42.708 57.0168H38.802V36.1989H36.1979V57.017H32.2919C31.5722 57.017 30.9899 57.599 30.9899 58.3181C30.9899 59.0373 31.5724 59.6191 32.2919 59.6191H42.708C43.4276 59.6191 44.0099 59.0372 44.0099 58.3181C44.0101 57.5988 43.4276 57.0168 42.708 57.0168ZM32.292 41.4034C33.0117 41.4034 33.594 40.8214 33.594 40.1023V36.1989H30.9899V40.1023C30.9899 40.8214 31.5724 41.4034 32.292 41.4034Z" fill="white"/>
</g>
<defs>
<clipPath id="clip0_1_2566">
<rect width="75" height="75" fill="white"/>
</clipPath>
</defs>
</svg>
