<svg width="75" height="75" viewBox="0 0 75 75" fill="none" xmlns="http://www.w3.org/2000/svg">
<g clip-path="url(#clip0_1_2568)">
<path d="M37.5 75C58.2107 75 75 58.2107 75 37.5C75 16.7893 58.2107 0 37.5 0C16.7893 0 0 16.7893 0 37.5C0 58.2107 16.7893 75 37.5 75Z" fill="#274BF1"/>
<path d="M54.7168 33.4161C54.7168 34.7429 53.6413 35.8184 52.3145 35.8184H22.6858C21.359 35.8184 20.2835 34.7429 20.2835 33.4161C20.2835 32.0893 21.359 31.0138 22.6858 31.0138H52.3145C53.6413 31.0138 54.7168 32.0893 54.7168 33.4161ZM56.7988 19.4024H55.5976V18.2012C55.5976 17.5379 55.0598 17 54.3964 17C53.7329 17 53.1952 17.5377 53.1952 18.2012V19.4024H51.9939C51.3306 19.4024 50.7927 19.9402 50.7927 20.6036C50.7927 21.2671 51.3305 21.8049 51.9939 21.8049H53.1952V23.0061C53.1952 23.6694 53.7329 24.2073 54.3964 24.2073C55.0598 24.2073 55.5976 23.6695 55.5976 23.0061V21.8049H56.7988C57.4621 21.8049 58 21.2671 58 20.6036C58 19.9402 57.4622 19.4024 56.7988 19.4024ZM23.0061 49.0313H21.8048V47.8301C21.8048 47.1668 21.2671 46.6289 20.6036 46.6289C19.9402 46.6289 19.4024 47.1667 19.4024 47.8301V49.0313H18.2012C17.5379 49.0313 17 49.5691 17 50.2326C17 50.896 17.5377 51.4338 18.2012 51.4338H19.4024V52.635C19.4024 53.2983 19.9402 53.8362 20.6036 53.8362C21.2671 53.8362 21.8048 53.2985 21.8048 52.635V51.4338H23.0061C23.6694 51.4338 24.2073 50.896 24.2073 50.2326C24.2073 49.5691 23.6695 49.0313 23.0061 49.0313ZM45.7081 28.6114H49.7119C50.7071 28.6114 51.5136 27.8047 51.5136 26.8097C51.5136 25.8147 50.7069 25.008 49.7119 25.008H45.7081C44.713 25.008 43.9064 25.8147 43.9064 26.8097C43.9064 27.8047 44.713 28.6114 45.7081 28.6114ZM31.704 51.2718L32.0978 56.883C32.1419 57.5122 32.6653 58 33.296 58H41.7042C42.335 58 42.8583 57.5121 42.9025 56.883L43.2963 51.2718C41.4486 51.9031 39.4882 52.2344 37.5001 52.2344C35.5121 52.2344 33.5517 51.9031 31.704 51.2718ZM37.5001 49.8321C44.803 49.8321 50.8879 44.8073 52.0959 38.2208H22.9044C24.1124 44.8073 30.1973 49.8321 37.5001 49.8321ZM31.0939 22.6056C31.7572 22.6056 32.2951 22.0678 32.2951 21.4044C32.2951 20.3005 33.1931 19.4024 34.297 19.4024C35.4009 19.4024 36.2989 20.3005 36.2989 21.4044V28.6114H38.7012V26.6094H39.9024C40.5657 26.6094 41.1036 26.0717 41.1036 25.4082C41.1036 24.7448 40.5659 24.207 39.9024 24.207H38.7012V21.4042C38.7012 18.9757 36.7255 17 34.297 17C31.8685 17 29.8928 18.9757 29.8928 21.4042C29.8928 22.0678 30.4305 22.6056 31.0939 22.6056Z" fill="white"/>
</g>
<defs>
<clipPath id="clip0_1_2568">
<rect width="75" height="75" fill="white"/>
</clipPath>
</defs>
</svg>
