<svg width="75" height="75" viewBox="0 0 75 75" fill="none" xmlns="http://www.w3.org/2000/svg">
<g clip-path="url(#clip0_1_2578)">
<path d="M37.5 75C58.2107 75 75 58.2107 75 37.5C75 16.7893 58.2107 0 37.5 0C16.7893 0 0 16.7893 0 37.5C0 58.2107 16.7893 75 37.5 75Z" fill="#202939"/>
<path d="M37.5 48.9219C42.2429 47.6058 45.5295 43.3056 45.5295 38.364V32.6649L37.5 30.6591L29.4705 32.6648V38.3639C29.4705 43.3056 32.7571 47.6056 37.5 48.9219ZM33.2478 38.9819C33.6959 38.5341 34.4218 38.5341 34.8698 38.9819L36.353 40.4637L40.1302 36.6896C40.5783 36.2419 41.3042 36.2419 41.7522 36.6896C42.2001 37.1374 42.2003 37.8626 41.7522 38.3103L37.1639 42.8948C36.9398 43.1186 36.6463 43.2305 36.3529 43.2305C36.0593 43.2305 35.7659 43.1186 35.5419 42.8948L33.2477 40.6025C32.7997 40.1548 32.7997 39.4296 33.2478 38.9819ZM55.853 19.1622H31.0926L35.6808 23.7467H57V20.3083C57 19.6748 56.4869 19.1622 55.853 19.1622ZM34.3949 25.7031L27.8485 19.1622H19.147C18.5129 19.1622 18 19.6748 18 20.3083V54.6916C18 55.3252 18.5131 55.8377 19.147 55.8377H55.8529C56.4869 55.8377 56.9999 55.3252 56.9999 54.6916V26.0389H35.2058C34.9012 26.0389 34.61 25.918 34.3949 25.7031ZM22.5882 24.8928C22.5882 24.2592 23.1013 23.7467 23.7352 23.7467H28.3235C28.9576 23.7467 29.4705 24.2592 29.4705 24.8928C29.4705 25.5263 28.9574 26.0389 28.3235 26.0389H23.7352C23.1013 26.0389 22.5882 25.5263 22.5882 24.8928ZM37.7778 28.3658L46.9543 30.6581C47.4651 30.7857 47.8235 31.2434 47.8235 31.7694V38.364C47.8235 44.455 43.6923 49.7412 37.7778 51.2187C37.686 51.2422 37.594 51.2534 37.5 51.2534C37.406 51.2534 37.314 51.2422 37.2222 51.2187C31.3077 49.7413 27.1765 44.455 27.1765 38.364V31.7694C27.1765 31.2434 27.535 30.7857 28.0457 30.6581L37.2222 28.3658C37.4059 28.3188 37.5941 28.3188 37.7778 28.3658Z" fill="white"/>
</g>
<defs>
<clipPath id="clip0_1_2578">
<rect width="75" height="75" fill="white"/>
</clipPath>
</defs>
</svg>
