<svg width="75" height="75" viewBox="0 0 75 75" fill="none" xmlns="http://www.w3.org/2000/svg">
<g clip-path="url(#clip0_1_2574)">
<path d="M37.5 75C58.2107 75 75 58.2107 75 37.5C75 16.7893 58.2107 0 37.5 0C16.7893 0 0 16.7893 0 37.5C0 58.2107 16.7893 75 37.5 75Z" fill="#202939"/>
<path d="M42.1578 41C47.9365 41 52.6371 36.2899 52.6371 30.5C52.6371 24.7099 47.9365 20 42.1578 20C36.3791 20 31.6785 24.7099 31.6785 30.5C31.6785 36.2901 36.3791 41 42.1578 41ZM38.7762 32.5018C39.3084 32.1339 40.0315 32.2615 40.3977 32.7923C41.0458 33.7243 41.8191 34.1663 42.5081 33.9465C42.9948 33.7938 43.3223 33.346 43.3223 32.8333C43.3223 32.1896 42.7992 31.6667 42.1578 31.6667C40.2316 31.6667 38.6648 30.0966 38.6648 28.1667C38.6648 26.674 39.6006 25.382 40.9935 24.8864V23.5C40.9935 22.8552 41.5143 22.3333 42.1578 22.3333C42.8013 22.3333 43.3223 22.8552 43.3223 23.5V24.8929C44.2471 25.206 45.1197 25.8542 45.8284 26.8757C46.1968 27.4044 46.0672 28.1323 45.5372 28.5004C45.012 28.8672 44.2842 28.7396 43.918 28.2087C43.2676 27.2745 42.4899 26.8427 41.8076 27.0535C41.3208 27.2062 40.9934 27.6539 40.9934 28.1665C40.9934 28.8103 41.5164 29.3332 42.1577 29.3332C44.0839 29.3332 45.6507 30.9032 45.6507 32.8332C45.6507 34.3259 44.7149 35.6179 43.322 36.1146V37.5C43.322 38.1448 42.8012 38.6667 42.1576 38.6667C41.5139 38.6667 40.9932 38.1449 40.9932 37.5V36.1296C40.0678 35.8174 39.1958 35.1466 38.4871 34.1252C38.1189 33.5966 38.2486 32.8698 38.7762 32.5018ZM17.7061 44.5V53.8333C17.7061 54.4781 18.2269 55 18.8705 55H24.6923V43.3333H18.8705C18.2269 43.3333 17.7061 43.8551 17.7061 44.5ZM56.8376 42.1735C56.827 42.1654 56.8163 42.1572 56.8056 42.1492C55.2015 40.9414 52.8803 41.4529 51.6762 43.0613L47.2801 48.9339C46.6206 49.8148 45.5857 50.3332 44.4866 50.3332H35.5673C34.9237 50.3332 34.403 49.8115 34.403 49.1665C34.403 48.5216 34.9238 47.9999 35.5673 47.9999H44.4866C45.7728 47.9999 46.8153 46.9551 46.8153 45.6665C46.8153 44.3778 45.7728 43.3332 44.4866 43.3332H37.9802C36.8931 42.2646 35.4014 40.9999 32.843 40.9999C31.4034 40.9999 30.0958 41.6561 28.8291 42.2895C28.2004 42.6051 27.5962 42.896 27.0212 43.0938V55H45.613C47.4521 55 49.1859 54.1405 50.3018 52.6758L57.056 43.8096C57.4527 43.2859 57.3359 42.5526 56.8376 42.1735Z" fill="white"/>
</g>
<defs>
<clipPath id="clip0_1_2574">
<rect width="75" height="75" fill="white"/>
</clipPath>
</defs>
</svg>
