<svg width="75" height="75" viewBox="0 0 75 75" fill="none" xmlns="http://www.w3.org/2000/svg">
    <g clip-path="url(#clip0_1_2575)">
        <path d="M37.5 75C58.2107 75 75 58.2107 75 37.5C75 16.7893 58.2107 0 37.5 0C16.7893 0 0 16.7893 0 37.5C0 58.2107 16.7893 75 37.5 75Z" fill="#202939"/>
        <path d="M42.7044 17.5853C42.7044 14.7151 40.3704 12.3809 37.5 12.3809C34.6296 12.3809 32.2956 14.7151 32.2956 17.5853C32.2956 20.4557 34.6296 22.7899 37.5 22.7899C40.3704 22.7899 42.7044 20.4557 42.7044 17.5853ZM37.5 22.7899C33.913 22.7899 30.9943 25.7086 30.9943 29.2956C30.9943 30.0146 31.5763 30.5966 32.2954 30.5966H42.7044C43.4237 30.5966 44.0055 30.0146 44.0055 29.2956C44.0057 25.7084 41.087 22.7899 37.5 22.7899ZM27.091 43.608C27.091 40.7376 24.7569 38.4034 21.8864 38.4034C19.016 38.4034 16.6819 40.7376 16.6819 43.608C16.6819 46.4783 19.0162 48.8124 21.8864 48.8124C24.7569 48.8124 27.091 46.4782 27.091 43.608ZM21.8865 48.8124C18.2996 48.8124 15.3809 51.7311 15.3809 55.3181C15.3809 56.0373 15.9628 56.6191 16.6819 56.6191H27.091C27.8102 56.6191 28.392 56.0372 28.392 55.3181C28.392 51.731 25.4735 48.8124 21.8865 48.8124ZM58.3181 43.608C58.3181 40.7376 55.9838 38.4034 53.1136 38.4034C50.2433 38.4034 47.909 40.7376 47.909 43.608C47.909 46.4783 50.2431 48.8124 53.1136 48.8124C55.9838 48.8124 58.3181 46.4782 58.3181 43.608ZM53.1136 48.8124C49.5267 48.8124 46.6078 51.7311 46.6078 55.3181C46.6078 56.0373 47.1898 56.6191 47.9089 56.6191H58.3179C59.0372 56.6191 59.619 56.0372 59.619 55.3181C59.6191 51.731 56.7006 48.8124 53.1136 48.8124ZM43.2864 41.1429L38.8011 38.9002V34.5C38.8011 33.7808 38.2191 33.1989 37.5 33.1989C36.7809 33.1989 36.1989 33.7809 36.1989 34.5V38.9002L31.7136 41.1429C31.0707 41.4645 30.8102 42.2458 31.1316 42.8887C31.4543 43.5316 32.2345 43.7896 32.8774 43.4707L37.5 41.1593L42.1226 43.4706C42.7721 43.7931 43.5486 43.5265 43.8684 42.8886C44.1898 42.2458 43.9293 41.4643 43.2864 41.1429Z" fill="white"/>
    </g>
    <defs>
        <clipPath id="clip0_1_2575">
            <rect width="75" height="75" fill="white"/>
        </clipPath>
    </defs>
</svg>
