<svg width="75" height="75" viewBox="0 0 75 75" fill="none" xmlns="http://www.w3.org/2000/svg">
<g clip-path="url(#clip0_1_2577)">
<path d="M37.5 75C58.2107 75 75 58.2107 75 37.5C75 16.7893 58.2107 0 37.5 0C16.7893 0 0 16.7893 0 37.5C0 58.2107 16.7893 75 37.5 75Z" fill="#202939"/>
<path d="M40.0784 36.1989H46.0054C46.4997 32.2941 46.1924 28.9188 44.6007 26.5217C43.3402 24.625 41.359 23.5811 38.7773 23.3074V21.8865C38.7773 19.7341 40.5282 17.9832 42.6807 17.9832C43.3999 17.9832 43.9818 17.4012 43.9818 16.6821C43.9818 15.963 43.3998 15.3809 42.6805 15.3809C39.8781 15.3809 37.5055 17.1721 36.5921 19.6619C35.4404 18.6299 33.936 17.9832 32.2717 17.9832C31.5524 17.9832 30.9706 18.5651 30.9706 19.2842C30.9706 20.0033 31.5526 20.5853 32.2717 20.5853C34.0163 20.5853 35.4795 21.7433 35.978 23.3253C33.4998 23.632 31.5917 24.669 30.3656 26.5128C29.539 27.7554 29.0827 29.2879 28.8846 30.9943H34.8738C35.593 30.9943 36.1749 31.5763 36.1749 32.2954C36.1749 33.0145 35.5929 33.5965 34.8738 33.5965H28.7784C28.841 36.0356 29.2949 38.7044 29.974 41.4032H34.8738C35.593 41.4032 36.1749 41.9852 36.1749 42.7043C36.1749 43.4234 35.5929 44.0054 34.8738 44.0054H30.6885C32.1808 49.0311 34.2184 53.8992 35.6094 57.2174L36.2714 58.8095C36.4709 59.2986 36.9474 59.6188 37.476 59.6188C38.0046 59.6188 38.481 59.2986 38.6805 58.8095L39.3527 57.1983C40.462 54.5616 41.5425 51.8704 42.5124 49.21H40.0782C39.359 49.21 38.7772 48.628 38.7772 47.9087C38.7772 47.1896 39.3592 46.6077 40.0782 46.6077H43.4261C44.3332 43.9072 45.0764 41.2775 45.5711 38.8009H40.0782C39.359 38.8009 38.7772 38.2189 38.7772 37.4999C38.7772 36.7808 39.3592 36.1989 40.0784 36.1989Z" fill="white"/>
</g>
<defs>
<clipPath id="clip0_1_2577">
<rect width="75" height="75" fill="white"/>
</clipPath>
</defs>
</svg>
