<svg width="75" height="75" viewBox="0 0 75 75" fill="none" xmlns="http://www.w3.org/2000/svg">
    <g clip-path="url(#clip0_1_2576)">
        <path d="M37.5 75C58.2107 75 75 58.2107 75 37.5C75 16.7893 58.2107 0 37.5 0C16.7893 0 0 16.7893 0 37.5C0 58.2107 16.7893 75 37.5 75Z" fill="#202939"/>
        <path d="M36.3591 31.0888L36.2273 31.8766L36.9344 31.5092C37.28 31.3267 37.7077 31.32 38.0658 31.5092L38.7729 31.8766L38.6411 31.0888C38.5763 30.6949 38.7057 30.2913 38.9911 30.0102L39.5592 29.4505L38.773 29.3303C38.3776 29.2702 38.0371 29.0229 37.8574 28.665L37.5001 27.9492L37.1429 28.665C36.9632 29.0229 36.6227 29.2704 36.2273 29.3303L35.4411 29.4505L36.0092 30.0102C36.2943 30.2914 36.4237 30.6949 36.3591 31.0888ZM49.7727 16.5923H25.2273C24.549 16.5923 24 17.1424 24 17.8221V57.1777C24 57.8576 24.5489 58.4075 25.2273 58.4075H41.1818V49.7984C41.1818 49.1187 41.7307 48.5686 42.4092 48.5686H51V17.8221C51 17.1424 50.4511 16.5923 49.7727 16.5923ZM31.6633 28.2207C31.8072 27.7764 32.1883 27.4545 32.6484 27.3848L35.2324 26.9932L36.4021 24.6512C36.8192 23.8201 38.1807 23.8201 38.5977 24.6512L39.7674 26.9932L42.3514 27.3848C42.8117 27.4545 43.1927 27.7764 43.3366 28.2207C43.4804 28.6627 43.3605 29.1503 43.0297 29.477L41.1673 31.3145L41.5964 33.8991C41.6731 34.358 41.4837 34.8216 41.1073 35.0955C40.7317 35.3704 40.2287 35.4073 39.8202 35.1915L37.5 33.9857L35.1797 35.1915C34.7673 35.4053 34.2687 35.3693 33.8925 35.0955C33.5162 34.8216 33.3268 34.358 33.4035 33.8991L33.8326 31.3145L31.9701 29.477C31.6393 29.1503 31.5194 28.6627 31.6633 28.2207ZM35.0455 51.0285H30.1363C29.458 51.0285 28.909 50.4784 28.909 49.7985C28.909 49.1188 29.4579 48.5687 30.1363 48.5687H35.0455C35.7238 48.5687 36.2728 49.1188 36.2728 49.7985C36.2727 50.4784 35.7238 51.0285 35.0455 51.0285ZM44.8637 46.109H30.1363C29.458 46.109 28.909 45.5589 28.909 44.8791C28.909 44.1994 29.4579 43.6493 30.1363 43.6493H44.8637C45.542 43.6493 46.091 44.1994 46.091 44.8791C46.0908 45.559 45.542 46.109 44.8637 46.109ZM44.8637 41.1896H30.1363C29.458 41.1896 28.909 40.6395 28.909 39.9597C28.909 39.28 29.4579 38.7299 30.1363 38.7299H44.8637C45.542 38.7299 46.091 39.28 46.091 39.9597C46.091 40.6395 45.542 41.1896 44.8637 41.1896ZM43.6363 57.687L50.2808 51.0285H43.6363V57.687Z" fill="white"/>
    </g>
    <defs>
        <clipPath id="clip0_1_2576">
            <rect width="75" height="75" fill="white"/>
        </clipPath>
    </defs>
</svg>
