<svg width="75" height="75" viewBox="0 0 75 75" fill="none" xmlns="http://www.w3.org/2000/svg">
<g clip-path="url(#clip0_1_3817)">
<path d="M37.5 75C58.2107 75 75 58.2107 75 37.5C75 16.7893 58.2107 0 37.5 0C16.7893 0 0 16.7893 0 37.5C0 58.2107 16.7893 75 37.5 75Z" fill="#274BF1"/>
<path d="M37.5 48.9221C42.2429 47.6059 45.5295 43.3057 45.5295 38.3642V32.665L37.5 30.6592L29.4705 32.6649V38.364C29.4705 43.3057 32.7571 47.6057 37.5 48.9221ZM33.2478 38.982C33.6959 38.5342 34.4218 38.5342 34.8698 38.982L36.353 40.4638L40.1302 36.6898C40.5783 36.242 41.3042 36.242 41.7522 36.6898C42.2001 37.1375 42.2003 37.8627 41.7522 38.3104L37.1639 42.8949C36.9398 43.1187 36.6463 43.2306 36.3529 43.2306C36.0593 43.2306 35.7659 43.1187 35.5419 42.8949L33.2477 40.6027C32.7997 40.1549 32.7997 39.4297 33.2478 38.982ZM55.853 19.1624H31.0926L35.6808 23.7468H57V20.3085C57 19.6749 56.4869 19.1624 55.853 19.1624ZM34.3948 25.7032L27.8485 19.1624H19.147C18.5129 19.1624 18 19.6749 18 20.3085V54.6917C18 55.3253 18.5131 55.8378 19.147 55.8378H55.8529C56.4869 55.8378 56.9999 55.3253 56.9999 54.6917V26.039H35.2058C34.9012 26.039 34.61 25.9181 34.3948 25.7032ZM22.5882 24.8929C22.5882 24.2593 23.1013 23.7468 23.7352 23.7468H28.3235C28.9576 23.7468 29.4705 24.2593 29.4705 24.8929C29.4705 25.5265 28.9574 26.039 28.3235 26.039H23.7352C23.1013 26.039 22.5882 25.5265 22.5882 24.8929ZM37.7778 28.366L46.9543 30.6582C47.4651 30.7858 47.8235 31.2436 47.8235 31.7696V38.3642C47.8235 44.4551 43.6923 49.7413 37.7778 51.2188C37.686 51.2423 37.594 51.2535 37.5 51.2535C37.406 51.2535 37.314 51.2423 37.2222 51.2188C31.3077 49.7415 27.1765 44.4551 27.1765 38.3642V31.7696C27.1765 31.2436 27.535 30.7858 28.0457 30.6582L37.2222 28.366C37.4059 28.319 37.5941 28.319 37.7778 28.366Z" fill="white"/>
</g>
<defs>
<clipPath id="clip0_1_3817">
<rect width="75" height="75" fill="white"/>
</clipPath>
</defs>
</svg>
